PathFileType	4	(X/Y/Z)	/Users/FranklinZhao/OpenSimProject/Simulation/Models/Rajapogal_2015/marker_data/trc/SN001_0010_10m_01.trc
DataRate	CameraRate	NumFrames	NumMarkers	Units	OrigDataRate	OrigDataStartFrame	OrigNumFrames
200.000000	200.000000	4	72	mm	200.000000	320	641
Frame#	Time	LPSIS			RPSIS			LICR			RICR			LASIS			RASIS			STER			XPRO			C7			T4			T8			T10			RUA1			RUA2			RUA3			RUA4			RHLE			RHME			RTEMP			RHEAD			LHEAD			LTEMP			RACR			LACR			LUA1			LUA2			LUA3			LUA4			LHLE			LHME			LFA1			LFA2			LFA3			LRSP			LUSP			RFA1			RFA2			RFA3			RRSP			RUSP			LTH1			LTH2			LTH3			LTH4			LFLE			LFME			LSK1			LSK2			LSK3			LSK4			LTAM			LFAL			LFCC			LFMT1			LFMT2			LFMT5			RTH1			RTH2			RTH3			RTH4			RFLE			RFME			RSK1			RSK2			RSK3			RSK4			RFAL			RTAM			RFCC			RFMT1			RFMT2			RFMT5			
		X1	Y1	Z1	X2	Y2	Z2	X3	Y3	Z3	X4	Y4	Z4	X5	Y5	Z5	X6	Y6	Z6	X7	Y7	Z7	X8	Y8	Z8	X9	Y9	Z9	X10	Y10	Z10	X11	Y11	Z11	X12	Y12	Z12	X13	Y13	Z13	X14	Y14	Z14	X15	Y15	Z15	X16	Y16	Z16	X17	Y17	Z17	X18	Y18	Z18	X19	Y19	Z19	X20	Y20	Z20	X21	Y21	Z21	X22	Y22	Z22	X23	Y23	Z23	X24	Y24	Z24	X25	Y25	Z25	X26	Y26	Z26	X27	Y27	Z27	X28	Y28	Z28	X29	Y29	Z29	X30	Y30	Z30	X31	Y31	Z31	X32	Y32	Z32	X33	Y33	Z33	X34	Y34	Z34	X35	Y35	Z35	X36	Y36	Z36	X37	Y37	Z37	X38	Y38	Z38	X39	Y39	Z39	X40	Y40	Z40	X41	Y41	Z41	X42	Y42	Z42	X43	Y43	Z43	X44	Y44	Z44	X45	Y45	Z45	X46	Y46	Z46	X47	Y47	Z47	X48	Y48	Z48	X49	Y49	Z49	X50	Y50	Z50	X51	Y51	Z51	X52	Y52	Z52	X53	Y53	Z53	X54	Y54	Z54	X55	Y55	Z55	X56	Y56	Z56	X57	Y57	Z57	X58	Y58	Z58	X59	Y59	Z59	X60	Y60	Z60	X61	Y61	Z61	X62	Y62	Z62	X63	Y63	Z63	X64	Y64	Z64	X65	Y65	Z65	X66	Y66	Z66	X67	Y67	Z67	X68	Y68	Z68	X69	Y69	Z69	X70	Y70	Z70	X71	Y71	Z71	X72	Y72	Z72	

321	1.6	595.385009765625	265.6313781738281	964.1775512695312	592.3489990234375	188.0724945068359	970.9537963867188	617.627685546875	354.6279907226562	1021.555969238281	613.991455078125	93.37895965576172	1050.231689453125	792.9415893554688	340.9968566894531	948.997314453125	778.1701049804688	79.46361541748047	948.9651489257812	755.7369384765625	256.0400390625	1413.899291992188	814.9281005859375	244.4307250976562	1206.755615234375	623.0580444335938	244.8992767333984	1517.355102539062	566.3475952148438	234.7940673828125	1408.1123046875	563.3543090820312	225.6604309082031	1274.591186523438	566.2355346679688	228.2949981689453	1229.482666015625	679.3772583007812	-19.13930320739746	1329.54541015625	750.8373413085938	3.802853584289551	1329.641235351562	770.6289672851562	-18.41254043579102	1261.431396484375	701.7635498046875	-44.82250595092773	1250.390258789062	745.0386352539062	-55.40728378295898	1168.485961914062	714.4485473632812	15.54188919067383	1138.659057617188	787.2409057617188	184.3394622802734	1673.191650390625	829.5439453125	220.0029144287109	1680.937622070312	829.6200561523438	302.2573547363281	1674.421875	779.968505859375	339.5523986816406	1657.660766601562	687.33837890625	68.95984649658203	1487.851928710938	640.2748413085938	432.3521728515625	1459.389770507812	621.1954345703125	472.6067810058594	1294.008544921875	547.1318969726562	460.0186767578125	1302.826049804688	523.9165649414062	463.1885681152344	1219.399536132812	597.3107299804688	473.9622802734375	1210.09375	536.7396240234375	462.9971618652344	1141.521362304688	512.4421997070312	392.3502197265625	1145.732299804688	538.1348266601562	440.269775390625	906.2046508789062	539.6900024414062	486.0708312988281	911.3273315429688	513.935791015625	457.2539367675781	888.3762817382812	474.39306640625	426.3177795410156	869.08740234375	461.8052062988281	496.91064453125	878.085693359375	924.0283813476562	-71.05618286132812	1085.270629882812	937.5878295898438	-28.45375061035156	1095.965698242188	949.525634765625	-39.88149261474609	1065.477905273438	983.6920166015625	-8.256434440612793	1026.81591796875	957.9243774414062	-64.34480285644531	1005.281433105469	846.2064208984375	398.8007507324219	694.278564453125	800.8849487304688	388.768798828125	672.7814331054688	841.669677734375	369.2991638183594	574.7774658203125	896.5765991210938	384.2440795898438	606.0941772460938	910.7111206054688	357.6650085449219	512.1655883789062	916.36376953125	238.7379913330078	499.0709228515625	961.2915649414062	384.5938110351562	340.1916198730469	904.201171875	370.2926025390625	319.9341735839844	933.6312255859375	355.8780517578125	238.5289001464844	991.082763671875	372.9487609863281	263.2848510742188	1066.062866210938	262.3121948242188	107.2396469116211	1027.0322265625	331.2831726074219	75.46927642822266	1018.379821777344	272.0926513671875	29.29357147216797	1207.52880859375	298.1904602050781	99.78791046142578	1200.03759765625	327.6507873535156	95.98469543457031	1167.232055664062	366.3407897949219	72.03407287597656	602.4127197265625	53.85791778564453	735.9315185546875	648.7053833007812	55.11165237426758	697.8428344726562	619.6961669921875	70.74111175537109	617.0547485351562	561.5853881835938	74.99043273925781	644.8604736328125	525.3012084960938	95.28205871582031	538.5881958007812	533.7001342773438	213.3595428466797	510.1363830566406	387.2079467773438	86.25192260742188	410.7501525878906	444.1015319824219	76.78562164306641	397.7182922363281	394.3788146972656	94.84623718261719	302.4272766113281	342.8892822265625	99.25850677490234	341.1016845703125	243.8856658935547	144.8507385253906	164.4380645751953	293.9744567871094	213.4328002929688	159.2110595703125	208.8374328613281	194.9728851318359	163.4045257568359	346.9110412597656	186.45849609375	30.68080711364746	351.3051147460938	146.5126800537109	29.61932945251465	310.7080688476562	102.7142791748047	37.66482162475586	
322	1.605	606.710693359375	265.8533325195312	964.3758544921875	603.3290405273438	188.2791290283203	971.4263305664062	628.461669921875	354.8070373535156	1021.789184570312	625.454833984375	93.54428863525391	1050.54931640625	804.1473388671875	341.9306640625	949.7455444335938	789.3175659179688	80.30464935302734	949.1362915039062	765.3402709960938	256.9965515136719	1414.334350585938	825.3246459960938	245.1357269287109	1207.454467773438	632.2771606445312	245.8311767578125	1517.326171875	576.0077514648438	235.8047027587891	1407.869140625	573.5745849609375	226.1346130371094	1274.472900390625	576.637939453125	228.7825775146484	1229.215209960938	688.0328979492188	-18.1278190612793	1329.750122070312	759.5464477539062	4.642153739929199	1329.734252929688	779.1552124023438	-17.73188400268555	1261.673706054688	710.1405639648438	-43.82846832275391	1250.614379882812	753.2703857421875	-54.405029296875	1168.599975585938	722.8658447265625	16.65052032470703	1139.13232421875	796.0567016601562	185.1535339355469	1673.41552734375	838.3558349609375	220.8287048339844	1680.98876953125	838.6798706054688	302.926025390625	1674.839111328125	789.0521850585938	340.2520141601562	1658.19921875	696.3704223632812	69.93912506103516	1488.217163085938	649.7256469726562	433.2510375976562	1459.389892578125	630.9973754882812	473.3872985839844	1293.989624023438	556.5465087890625	460.8641662597656	1302.90673828125	534.0067749023438	464.1789855957031	1219.265380859375	607.2949829101562	474.73974609375	1210.057006835938	546.6607666015625	463.7329711914062	1141.126220703125	522.3987426757812	393.2083435058594	1145.764892578125	548.5935668945312	440.8717956542969	906.1079711914062	550.1475219726562	486.6702270507812	911.3870239257812	524.502685546875	457.9456481933594	888.2894287109375	484.9979858398438	427.148681640625	868.7372436523438	472.4317932128906	497.7380981445312	877.8455200195312	931.712890625	-70.52265167236328	1084.425415039062	945.5150146484375	-27.88759613037109	1095.00244140625	957.2362670898438	-39.51138305664062	1064.411010742188	991.3794555664062	-8.035187721252441	1025.633544921875	965.2215576171875	-63.93045043945312	1004.243469238281	857.3795776367188	398.5490417480469	695.2008666992188	812.0884399414062	388.6144104003906	673.6736450195312	852.80029296875	369.8019104003906	575.3396606445312	907.7095947265625	384.6575622558594	606.7616577148438	921.382568359375	357.4608154296875	512.25537109375	927.4954223632812	239.7821960449219	499.509521484375	969.497802734375	384.4126892089844	338.8512268066406	911.8375854492188	371.3847045898438	319.7067565917969	939.4642333984375	356.6561279296875	237.7101898193359	997.68896484375	372.6479797363281	261.5615539550781	1068.455322265625	261.6936340332031	103.8833618164062	1029.39111328125	331.161376953125	72.98241424560547	1019.529357910156	272.1440734863281	27.12716674804688	1209.981811523438	297.0234985351562	94.50417327880859	1202.466430664062	326.5831909179688	90.64608001708984	1169.45166015625	365.3135375976562	67.36099243164062	613.4804077148438	54.58605194091797	735.665771484375	659.8304443359375	55.42160797119141	697.69580078125	631.0069580078125	70.71739196777344	616.7969360351562	572.6209716796875	75.49508666992188	644.2975463867188	537.141845703125	95.48420715332031	538.0039672851562	546.3994750976562	213.6690673828125	509.0238647460938	397.5667724609375	86.54914093017578	412.1524353027344	454.1967163085938	76.28501892089844	398.3569030761719	402.8346557617188	94.23532867431641	303.6360473632812	352.1719665527344	99.09731292724609	343.220703125	250.5135498046875	144.2904815673828	168.1803894042969	300.7587280273438	212.4342651367188	161.4878082275391	215.9758453369141	194.7397155761719	168.4449768066406	347.3666687011719	186.5954895019531	30.64358520507812	352.2004699707031	146.5428009033203	29.45332145690918	312.3928527832031	102.6056900024414	38.48292922973633	
323	1.61	618.1011962890625	265.9620971679688	964.5936279296875	614.8866577148438	188.5218963623047	971.46630859375	639.443359375	354.9286499023438	1021.857727050781	637.001953125	93.75889587402344	1050.738403320312	815.4464111328125	342.8055114746094	950.5216674804688	800.42578125	81.09185791015625	949.3313598632812	775.0191650390625	257.712890625	1414.8701171875	835.8184814453125	246.0451049804688	1208.332153320312	641.6442260742188	246.8258056640625	1517.302124023438	585.7314453125	236.5600128173828	1407.681030273438	583.813232421875	226.8293914794922	1274.36083984375	587.1303100585938	229.2593688964844	1229.175415039062	696.2984008789062	-17.18194770812988	1330.114868164062	768.1744995117188	5.198853492736816	1330.036499023438	787.6056518554688	-17.18841743469238	1261.853515625	718.1304321289062	-42.70724487304688	1250.83740234375	761.4437866210938	-53.35874938964844	1168.884887695312	731.1657104492188	17.86373138427734	1139.528686523438	805.0020751953125	185.9257659912109	1673.70947265625	847.2319946289062	221.6714019775391	1681.456665039062	847.6497192382812	303.5745239257812	1675.27880859375	798.09765625	341.1156311035156	1658.4814453125	705.363037109375	71.06241607666016	1488.45166015625	659.2499389648438	434.0943908691406	1459.400756835938	640.9456787109375	474.2203369140625	1293.885498046875	566.507568359375	461.8345336914062	1302.80517578125	543.8950805664062	464.9637145996094	1219.00634765625	617.3483276367188	475.4702453613281	1210.007690429688	556.8394775390625	464.5274047851562	1141.14697265625	532.5440063476562	393.994384765625	1145.794799804688	559.2655639648438	441.5155029296875	906.25634765625	560.8872680664062	487.4097595214844	911.4246826171875	535.2603759765625	458.7688903808594	888.1456909179688	495.8431091308594	427.7049865722656	868.5560302734375	483.2483825683594	498.4713745117188	877.5054321289062	939.3128051757812	-70.02681732177734	1083.38037109375	953.2957153320312	-27.43485641479492	1093.903930664062	964.81884765625	-39.19235992431641	1063.29833984375	998.997802734375	-7.63764762878418	1024.409301757812	972.4044189453125	-63.60599899291992	1003.071350097656	868.5775146484375	396.2799377441406	695.2581787109375	823.139892578125	388.6284484863281	674.379150390625	863.7586059570312	370.398193359375	575.8883666992188	918.7510986328125	384.7506713867188	607.2532348632812	931.7748413085938	357.2267150878906	511.7739868164062	938.0438842773438	240.7120056152344	499.2630615234375	977.4287719726562	384.3586120605469	337.4799499511719	919.168212890625	372.2964477539062	319.2180786132812	945.1983642578125	357.5271301269531	236.7627563476562	1004.027709960938	372.3035583496094	259.664306640625	1070.413452148438	261.1866760253906	100.5242462158203	1031.486083984375	330.9537658691406	70.39376831054688	1019.715393066406	272.3663940429688	25.91411399841309	1212.135986328125	295.5731811523438	89.49212646484375	1204.747192382812	325.2856750488281	85.47975921630859	1171.368530273438	364.2931518554688	62.88189315795898	624.7548217773438	55.36606597900391	735.2749633789062	671.1474609375	55.77104568481445	697.44677734375	642.6572875976562	70.82489776611328	616.290771484375	584.2271728515625	76.10524749755859	643.7120361328125	549.389404296875	95.58252716064453	537.1401977539062	559.424072265625	213.8715362548828	507.4706420898438	408.3645324707031	86.63563537597656	413.3178100585938	464.6347961425781	76.16226196289062	398.7053833007812	411.8111877441406	93.54991149902344	304.732177734375	361.8651733398438	99.12774658203125	345.0905456542969	257.700439453125	143.4825744628906	171.6198425292969	307.9606628417969	211.4621734619141	163.4738006591797	223.6568298339844	194.3794708251953	173.2926330566406	348.1087341308594	186.7716064453125	30.56028175354004	353.0618286132812	146.5563507080078	29.23512649536133	314.1929321289062	102.7231979370117	39.30277252197266	
324	1.615	629.628662109375	266.229248046875	964.98486328125	626.1234741210938	188.7527313232422	971.8060302734375	650.4732666015625	355.211181640625	1021.977111816406	648.549072265625	93.88394927978516	1050.920532226562	826.9349975585938	343.7496643066406	951.3132934570312	811.6268310546875	82.1265869140625	949.4337158203125	784.5472412109375	258.6653137207031	1415.273193359375	846.4473876953125	246.8299713134766	1209.1318359375	650.9669189453125	247.7920532226562	1517.242553710938	595.3710327148438	237.6351165771484	1407.203857421875	594.0597534179688	227.6683502197266	1273.995849609375	597.7395629882812	229.78564453125	1229.018432617188	704.822509765625	-16.07159042358398	1330.41357421875	776.867431640625	5.837028980255127	1330.160034179688	795.9871215820312	-16.45360946655273	1261.932739257812	726.6329956054688	-41.6359977722168	1250.961669921875	769.5950317382812	-52.31978225708008	1168.96728515625	739.2200317382812	18.89934539794922	1139.84814453125	813.927001953125	186.5113677978516	1673.932739257812	856.0217895507812	222.2991027832031	1681.871215820312	856.565673828125	304.2314453125	1675.566772460938	807.1194458007812	341.7616577148438	1659.072998046875	714.349609375	72.06938934326172	1488.7294921875	668.76025390625	434.986328125	1459.378662109375	650.913818359375	475.0992126464844	1293.864990234375	576.3530883789062	462.8372192382812	1302.62255859375	554.0140991210938	465.8054809570312	1218.859008789062	627.50244140625	476.2669677734375	1209.964721679688	567.0423583984375	465.3205261230469	1141.07958984375	542.845703125	394.6744689941406	1145.473876953125	570.1762084960938	442.45263671875	906.123779296875	571.8133544921875	488.13916015625	911.2534790039062	546.2806396484375	459.3129272460938	887.9984741210938	506.864501953125	428.659912109375	868.2429809570312	494.3552551269531	499.2325744628906	877.1619262695312	946.8147583007812	-69.4912109375	1082.387817382812	961.04638671875	-26.99386405944824	1092.735473632812	972.3482666015625	-38.76675033569336	1062.09912109375	1006.304443359375	-7.417541980743408	1022.857238769531	979.5051879882812	-63.28891754150391	1001.925354003906	879.5584716796875	395.685791015625	695.7330322265625	833.9465942382812	388.9371032714844	674.7732543945312	874.3993530273438	371.1763305664062	576.1223754882812	929.5313720703125	384.6675109863281	607.6799926757812	941.6400146484375	356.8348083496094	511.1216125488281	947.7872314453125	241.4678344726562	498.5301208496094	985.0790405273438	384.3207397460938	335.9663391113281	926.35400390625	373.3112182617188	318.743896484375	950.5852661132812	358.2460327148438	235.6335601806641	1010.187133789062	372.1390075683594	257.6099853515625	1072.299194335938	260.526611328125	97.2010498046875	1033.87060546875	330.4405517578125	67.70437622070312	1020.207336425781	272.7176818847656	24.88365745544434	1213.966674804688	293.9883117675781	84.11739349365234	1206.92724609375	323.6581420898438	80.19342803955078	1173.444213867188	363.127197265625	57.75308990478516	636.1063842773438	56.53171920776367	734.467041015625	682.7108764648438	56.3022346496582	696.8320922851562	654.6741333007812	70.70313262939453	615.6085205078125	596.4544067382812	76.64658355712891	642.6820678710938	562.081787109375	95.72430419921875	535.8150634765625	572.9337768554688	214.0078887939453	505.6402893066406	419.6513977050781	86.84532928466797	414.2537841796875	475.5549926757812	75.89115905761719	398.8004455566406	421.345458984375	93.05974578857422	305.524658203125	372.0640563964844	99.47076416015625	346.6185913085938	265.3577270507812	142.623779296875	174.9974517822266	315.7814331054688	210.4062652587891	165.1418914794922	231.8809356689453	194.2032012939453	178.0749053955078	348.9202270507812	187.0064849853516	30.58199119567871	353.9101867675781	146.5834350585938	28.8826847076416	316.1097717285156	103.0841064453125	40.02459716796875	
